<?xml version="1.0" standalone="no"?>
<!DOCTYPE svg PUBLIC "-//W3C//DTD SVG 20010904//EN"
 "http://www.w3.org/TR/2001/REC-SVG-20010904/DTD/svg10.dtd">
<svg version="1.0" xmlns="http://www.w3.org/2000/svg"
 width="700.000000pt" height="700.000000pt" viewBox="0 0 700.000000 700.000000"
 preserveAspectRatio="xMidYMid meet">
<metadata>
Created by potrace 1.11, written by Peter Selinger 2001-2013
</metadata>
<g transform="translate(0.000000,700.000000) scale(0.100000,-0.100000)"
fill="#000000" stroke="none">
<path d="M5065 6626 c-56 -50 -238 -214 -405 -365 -168 -151 -345 -311 -395
-355 -49 -45 -114 -103 -145 -131 -31 -27 -96 -86 -145 -131 -50 -44 -117
-105 -150 -134 -33 -29 -67 -60 -76 -69 -9 -9 -47 -43 -84 -76 -38 -33 -81
-71 -95 -85 -15 -14 -64 -59 -111 -100 -46 -41 -91 -81 -100 -90 -64 -62 -164
-145 -175 -144 -7 1 -53 26 -101 56 -127 79 -324 200 -354 218 -14 8 -69 42
-123 75 -53 33 -104 65 -114 70 -9 6 -28 17 -42 26 -38 25 -312 193 -332 204
-10 6 -137 83 -282 172 -145 89 -269 163 -276 165 -8 2 -23 -22 -36 -57 -13
-33 -28 -69 -34 -80 -5 -11 -16 -38 -23 -60 -15 -42 -180 -456 -196 -490 -5
-11 -58 -141 -116 -290 -59 -148 -114 -286 -122 -305 -8 -19 -19 -44 -24 -55
-5 -11 -15 -38 -22 -60 -14 -40 -179 -452 -197 -490 -5 -11 -68 -170 -141
-353 l-132 -333 25 -27 c13 -15 48 -54 78 -87 30 -33 93 -102 140 -154 47 -52
90 -99 95 -105 23 -25 211 -232 220 -242 25 -27 171 -189 180 -198 6 -6 57
-63 114 -126 93 -102 234 -257 300 -329 13 -14 53 -59 90 -100 36 -41 80 -88
96 -105 17 -18 64 -70 105 -116 82 -92 85 -95 150 -166 25 -27 72 -78 105
-114 32 -36 97 -107 143 -158 47 -51 93 -102 103 -113 9 -11 55 -61 101 -111
245 -268 260 -286 263 -320 2 -18 6 -80 9 -138 4 -58 9 -112 12 -121 3 -10 20
-19 42 -23 54 -9 41 -6 664 -131 315 -63 576 -115 580 -115 3 0 30 33 60 72
29 40 58 80 65 88 7 8 382 508 833 1110 452 602 830 1106 840 1120 11 14 134
179 275 367 l256 341 -17 44 c-9 23 -20 52 -25 63 -5 11 -28 72 -52 135 -24
63 -47 124 -52 135 -5 11 -9 22 -9 25 -2 8 -77 203 -86 225 -5 11 -26 63 -46
115 -52 137 -86 226 -149 390 -31 80 -70 181 -87 225 -16 44 -34 89 -38 100
-11 26 -75 193 -260 675 -83 217 -155 404 -160 415 -14 29 -110 283 -110 290
0 3 -8 24 -19 48 -10 23 -51 128 -91 232 -40 105 -78 202 -84 216 l-11 26
-100 -91z"/>
</g>
</svg>
