<?xml version="1.0" encoding="utf-8"?>
<!-- Generator: Adobe Illustrator 21.0.0, SVG Export Plug-In . SVG Version: 6.00 Build 0)  -->
<svg version="1.1" id="Layer_1" xmlns="http://www.w3.org/2000/svg" xmlns:xlink="http://www.w3.org/1999/xlink" x="0px" y="0px"
	 viewBox="0 0 31 20" style="enable-background:new 0 0 31 20;" xml:space="preserve">
<g transform="translate(0,-952.36218)">
	<path d="M30.1,961.4l-7.3-8.2c-0.5-0.6-1.5-0.7-2.1-0.1c-0.6,0.5-0.6,1.5-0.1,2.1l5.1,5.8H2c-0.8,0-1.5,0.7-1.5,1.5
		s0.7,1.5,1.5,1.5h23.9l-5.1,5.8c-0.5,0.6-0.4,1.5,0.1,2.1c0.6,0.5,1.5,0.5,2.1-0.1l7.3-8.2c0.2-0.2,0.4-0.6,0.4-1
		C30.5,962,30.4,961.7,30.1,961.4z"/>
</g>
</svg>
