<?xml version="1.0" encoding="utf-8"?>
<!-- Generator: Adobe Illustrator 21.0.0, SVG Export Plug-In . SVG Version: 6.00 Build 0)  -->
<svg version="1.1" id="Layer_1" xmlns="http://www.w3.org/2000/svg" xmlns:xlink="http://www.w3.org/1999/xlink" x="0px" y="0px"
	 viewBox="0 0 200 200" style="enable-background:new 0 0 200 200;" xml:space="preserve">
<path d="M97.4,56.4c0,0.6-0.6,0.6-0.6,0.6h-0.6c-0.6,0-0.6-0.6-1.1-1.1c0,0-0.6-0.6-0.6-1.1c0-0.6,0-0.6,0.6-0.6l1.1,0.6
	C96.8,55.3,97.4,55.8,97.4,56.4z M87.2,50.8c0-2.8-1.1-4.5-2.8-4.5c0,0,0,0.6-0.6,0.6v1.1h1.7c0,1.1,0.6,1.7,0.6,2.8H87.2z
	 M107,47.9c1.1,0,1.7,1.1,2.3,2.8h1.1c-0.6-0.6-0.6-1.1-0.6-1.7s0-1.1-0.6-1.7s-1.1-1.1-1.7-1.1c0,0-0.6,0.6-1.1,0.6
	C106.4,47.4,107,47.4,107,47.9z M90.1,57c-0.6,0-0.6,0-0.6-0.6s0-1.1,0.6-1.7c1.1,0,1.7-0.6,1.7-0.6c0.6,0,0.6,0.6,0.6,0.6
	c0,0.6-0.6,1.1-1.7,2.3H90.1z M83.9,56.4c-2.3-1.1-2.8-2.8-2.8-5.7c0-1.7,0-2.8,1.1-4c0.6-1.1,1.7-1.7,2.8-1.7s1.7,0.6,2.8,1.7
	c0.6,1.7,1.1,3.4,1.1,5.1V53h0.6v-0.6c0.6,0,0.6-1.1,0.6-3.4c0-1.7,0-3.4-1.1-5.1s-2.3-2.8-4.5-2.8c-1.7,0-3.4,1.1-4,2.8
	c-1.1,2.3-1.4,4-1.4,6.8c0,2.3,0.8,4.5,3.1,6.8C82.7,57,83.3,57,83.9,56.4z M154.5,136.1c0.6,0,0.6-0.2,0.6-0.7
	c0-1.2-0.6-2.7-2.3-4.3c-1.7-1.7-4.5-2.8-7.9-3.2c-0.6-0.1-1.1-0.1-1.1-0.1c-0.6-0.1-0.6-0.1-1.1-0.1c-0.6-0.1-1.7-0.2-2.3-0.3
	c1.7-5.3,2.3-9.9,2.3-14c0-5.7-1.1-9.6-3.4-13s-4.5-5.1-7.3-5.7c-0.6,0.6-0.6,0.6-0.6,1.1c2.8,1.1,5.6,3.4,7.3,6.8
	c1.7,4,2.3,7.3,2.3,11.3c0,3.2-0.6,7.9-2.8,13.8c-2.3,0.9-4.5,3-6.2,6.3c0,0.5,0,0.8,0.6,0.8c0,0,0.6-0.5,1.1-1.5
	c1.1-1,1.7-1.9,2.8-2.9c1.7-1,2.8-1.5,4.5-1.5c2.8,0,5.6,0.4,7.3,1.2c2.3,0.7,3.4,1.5,4,2.4c0.6,0.8,1.1,1.6,1.7,2.4
	C153.9,135.7,154.5,136.1,154.5,136.1L154.5,136.1z M102.5,54.1c-0.6-0.6-0.6-1.7-0.6-2.8c0-2.3,0-3.4,1.1-5.1
	c1.1-1.1,2.3-1.7,3.4-1.7c1.7,0,2.8,1.1,4,2.3c0.6,1.7,1.1,2.8,1.1,4.5c0,2.8-1.1,4.5-3.4,5.1c0,0,0.6,0.6,1.1,0.6
	c1.1,0,1.7,0.6,2.8,1.1c0.6-3.4,1.1-5.7,1.1-8.5c0-3.4-0.6-5.7-1.7-7.3c-1.7-1.7-3.4-2.3-5.7-2.3c-1.7,0-3.4,0.6-5.1,1.7
	c-1.1,1.7-1.7,2.8-1.7,4.5c0,2.8,0.6,5.1,1.7,7.3C101.4,53.6,101.9,54.1,102.5,54.1z M109.3,63.2c-7.3,5.1-13,7.3-17.5,7.3
	c-4,0-7.9-1.7-11.3-4.5c0.6,1.1,1.1,2.3,1.7,2.8l3.4,3.4c2.3,2.3,5.1,3.4,7.9,3.4c4,0,8.5-2.3,14.1-6.2l5.1-3.4
	c1.1-1.1,2.3-2.3,2.3-4c0-0.6,0-1.1-0.6-1.1c-0.6-1.1-3.4-2.8-9-4.5c-5.1-2.3-9-3.4-11.3-3.4c-1.7,0-4.5,1.1-8.5,3.4
	c-3.4,2.3-5.7,4.5-5.7,6.8c0,0,0.6,0.6,1.1,1.7c3.4,2.8,6.8,4.5,10.2,4.5c4.5,0,10.2-2.3,17.5-7.9v1.1
	C109.3,62.6,109.3,63.2,109.3,63.2z M122.3,177.3c2.3,4.2,6.2,6.4,10.7,6.4c1.1,0,2.3-0.2,3.4-0.5c1.1-0.2,2.3-0.6,2.8-1.1
	c0.6-0.4,1.1-0.8,1.7-1.2c1.1-0.4,1.1-0.7,1.7-1l9.6-8.3c2.3-1.8,4.5-3.4,7.3-4.7c2.3-1.4,4.5-2.3,5.6-2.8c1.7-0.5,2.8-1.1,4-2
	c0.6-0.8,1.1-1.9,1.1-3.3c0-1.6-1.1-2.9-2.3-3.8c-1.1-0.9-2.3-1.5-3.4-1.9s-2.3-1.3-4-2.8c-1.1-1.5-2.3-3.5-2.8-6.2l-0.6-3.3
	c-0.6-1.5-0.6-2.7-1.1-3.3c0-0.2,0-0.2-0.6-0.2s-1.7,0.5-2.3,1.5c-1.1,1-2.3,2-3.4,3.2c-0.6,1.1-2.3,2.1-3.4,3.1
	c-1.7,1-3.4,1.5-4.5,1.5c-4.5,0-6.8-1.2-8.5-3.7c-1.1-1.8-1.7-3.9-2.3-6.3c-1.1-1-1.7-1.5-2.8-1.5c-2.8,0-4,2.9-4,8.9v17.6
	c0,0.5-0.6,1.6-0.6,3.4c-0.6,1.8-0.6,3.7-0.6,6l-1.1,6.3L122.3,177.3L122.3,177.3L122.3,177.3z M40.4,174.3
	c5.3,0.8,11.3,2.4,18.1,4.9c6.8,2.5,11,3.8,12.5,3.8c4,0,7.2-1.8,9.9-5.1c0.6-1.1,0.6-2.4,0.6-3.9c0-5.3-3.2-12.1-9.7-20.3l-3.8-5.1
	c-0.8-1.1-1.8-2.7-3-4.9c-1.2-2.2-2.3-3.9-3.1-5.1c-0.7-1.3-1.9-2.6-3.4-3.9c-1.5-1.3-3.2-2.1-5-2.6c-2.4,0.5-4,1.2-4.8,2.3
	c-0.8,1.1-1.2,2.3-1.4,3.5c-0.2,1.2-0.5,2-1.1,2.4c-0.6,0.3-1.5,0.6-2.8,0.9c-0.3,0-0.8,0-1.5,0.1h-1.5c-3,0-5,0.3-6.1,0.9
	c-1.4,1.6-2.1,3.5-2.1,5.5c0,0.9,0.2,2.4,0.7,4.6c0.5,2.1,0.7,3.8,0.7,5c0,2.3-0.7,4.6-2.1,6.9c-1.4,2.4-2.1,4.2-2.1,5.5
	C29.8,171.8,33.5,173.3,40.4,174.3L40.4,174.3z M59.2,122.9c0-3.9,1-8.2,3.1-13.3c2-5.1,4.1-8.5,6-10.7c-0.1-0.6-0.4-0.6-0.8-0.6
	l-0.6-0.6c-1.6,1.7-3.6,5.7-6,11.3c-2.4,5.1-3.6,9.8-3.6,13.2c0,2.5,0.6,4.7,1.8,6.7c1.2,1.9,4.2,4.6,9,8l6,3.9
	c6.4,5.5,9.8,9.4,9.8,11.6c0,1.2-0.6,2.4-2.3,3.7c-1.1,1.4-2.7,2-4,2c-0.1,0-0.2,0.1-0.2,0.4c0,0.1,0.6,1.2,1.8,3.4
	c2.4,3.2,7.5,4.8,14.2,4.8c12.4,0,22-5.1,29.4-15.3c0-2.8,0-4.6-0.6-5.3v-2.1c0-3.7,0.6-6.4,1.7-8.2c1.1-1.8,2.3-2.7,4-2.7
	c1.1,0,2.3,0.4,3.4,1.2c0.6-4.3,0.6-8.1,0.6-11.5c0-5.1,0-9.4-1.1-13.3c-0.6-3.4-1.7-6.2-2.8-8.5c-1.1-1.7-2.3-3.4-3.4-5.1
	s-1.7-3.4-2.8-5.1c-0.6-2.3-1.1-4-1.1-6.8c-1.7-2.8-2.8-5.7-4.5-8.5c-1.1-2.8-2.3-5.7-3.4-7.9l-5.1,4c-5.7,4-10.2,5.7-14.1,5.7
	c-3.4,0-6.2-0.6-7.9-2.8l-3.4-2.8c0,1.7-0.6,4-1.7,6.2l-3.6,6.8c-1.6,4-2.4,6.2-2.6,7.9C74,93.8,73.8,95,73.7,95l-4.2,8.5
	c-4.6,8.5-6.9,16.3-6.9,22.8c0,1.3,0.1,2.7,0.3,4C60.4,128.5,59.1,126.1,59.2,122.9L59.2,122.9z M99.6,176.4c-7.3,0-13,1-16.9,3
	v-0.2c-2.8,3.4-6,5.1-10.4,5.1c-2.8,0-7.1-1.1-13-3.2c-5.9-2-11.2-3.6-15.8-4.6c-0.5-0.1-1.5-0.3-3.1-0.6c-1.6-0.3-3.1-0.5-4.3-0.8
	c-1.2-0.3-2.5-0.6-4-1.2c-1.4-0.4-2.5-1-3.4-1.7c-0.8-0.7-1.2-1.5-1.2-2.4s0.2-1.9,0.6-2.9c0.4-0.6,0.8-1.2,1.2-1.8
	c0.4-0.6,0.7-1.2,1-1.8c0.3-0.5,0.6-1,0.8-1.6c0.2-0.5,0.5-1,0.6-1.6c0.1-0.6,0.2-1.1,0.2-1.7s-0.2-2.3-0.7-5.3
	c-0.5-2.9-0.7-4.8-0.7-5.6c0-2.5,0.6-4.5,1.8-5.9c1.2-1.4,2.4-2.1,3.7-2.1h6.5c0.5,0,1.3-0.3,2.5-1c0.4-0.9,0.7-1.6,1-2.3
	c0.3-0.7,0.4-1.2,0.5-1.4c0.1-0.3,0.2-0.7,0.3-1c0.2-0.4,0.5-0.8,0.9-1.3c-0.5-0.6-0.7-1.3-0.7-2.2c0-0.6,0-1.2,0.1-1.5
	c0-2,1-4.9,3-8.7l2-3.6c1.6-3.1,2.9-5.3,3.8-7.6c1-2.3,2-5.7,3.1-10.2c0.9-4,3.1-7.9,6.4-11.9l4.2-5.1c2.9-3.4,4.9-6.2,5.9-8.5
	c1.1-2.3,1.6-5.1,1.6-7.3c0-1.1-0.3-4.5-0.9-10.2c-0.6-5.7-0.8-11.3-0.8-16.4c0-4,0.3-6.8,1.1-9.6s2-5.6,4-7.9
	c1.7-2.3,4-4.5,7.3-5.6s7.3-1.7,11.9-1.7c1.7,0,3.4,0,5.1,0.6c1.7,0,4,0.6,6.8,1.7c2.3,1.1,4.5,2.3,6.2,4c2.3,1.7,4,4.5,5.7,7.3
	c1.1,3.4,2.3,6.8,2.8,11.3c0.6,2.8,0.6,5.7,1.1,9.6c0,3.4,0.6,5.7,0.6,7.3c0.6,1.7,0.6,4,1.1,6.8c0.6,2.3,1.1,4.5,2.3,6.2
	c1.1,2.3,2.3,4.5,4,6.8c1.7,2.8,4,5.7,6.2,9c5.1,5.7,9,11.9,11.3,18.1c2.8,5.7,4.5,13,4.5,20.8c0,3.9-0.6,7.7-1.7,11.4
	c1.1,0,1.7,0.5,2.3,1.2s1.1,2.5,1.7,5.1l0.6,4.2c0.6,1.2,1.1,2.4,2.8,3.4c1.1,1,2.3,1.9,4,2.5c1.1,0.6,2.8,1.4,4,2.4
	c1.1,1.1,1.7,2.3,1.7,3.6c0,1.9-0.6,3.3-1.7,4.3c-1.1,1.1-2.3,1.9-4,2.4c-1.1,0.6-3.4,1.7-6.8,3.3c-2.8,1.7-5.6,3.7-8.5,6.1
	l-5.6,4.8c-2.3,2.2-4.5,3.8-6.2,4.7c-1.7,1-4,1.5-6.2,1.5l-4-0.5c-4.5-1.2-7.3-3.4-9-6.9C111.5,176.9,104.1,176.3,99.6,176.4
	L99.6,176.4z"/>
</svg>
