<?xml version="1.0" encoding="utf-8"?>
<!-- Generator: Adobe Illustrator 21.0.0, SVG Export Plug-In . SVG Version: 6.00 Build 0)  -->
<svg version="1.1" id="Layer_1" xmlns="http://www.w3.org/2000/svg" xmlns:xlink="http://www.w3.org/1999/xlink" x="0px" y="0px"
	 viewBox="0 0 200 200" style="enable-background:new 0 0 200 200;" xml:space="preserve">
<path d="M158.4,35.3c-0.5-0.5-1-0.9-1.5-1.4C157.5,34.4,157.9,34.9,158.4,35.3z M16.4,82.4c0,0-0.2,0.3-0.6,0.8
	c-0.1,0.3-0.1,0.6-0.2,0.8C15.9,83.3,16.1,82.8,16.4,82.4L16.4,82.4z M41,42.6c0.2-0.2,0.3-0.3,0.5-0.5c7.4-7.4,16.1-13.2,25.7-17.3
	c10-4.2,20.5-6.3,31.4-6.3c10.3,0,20.3,1.9,29.8,5.7c5.5,1,12.9,2.8,19,6.3c-13.8-9.8-30.6-15.5-48.8-15.5
	c-23.6,0-44.9,9.7-60.2,25.3C39.1,41,40,41.8,41,42.6L41,42.6z M71,106c-0.6-0.5-1.1-1-1.5-1.6c-0.1,1.2-0.2,2.5-0.2,3.9
	c0,2.5,0.3,5.3,1.2,8c0.9,2.7,2.3,5.4,4.5,7.9c1.5,1.7,3.3,3.3,5.6,4.7l-0.1,0.2c4.3,0.1,11.4,0,15-1.2c5.4-1.8,14-8.6,14-8.6
	c2.2-2.2,4.7-1.1,6.8-1.1s2.9-3.2,0-6.5c-2.9-3.2-12.9-6.5-20.5-1.4S77.4,111.4,71,106L71,106L71,106z M76.2,58.7
	c-0.5,1.8-0.9,4.1-0.9,6.5c0,2.5,0.4,5.2,1.6,7.8c0.9,2.1,1.8,3.7,2.6,4.9c0.6,0.9,1.1,1.6,1.6,2.3c1-0.9,2.2-1.9,3.2-2.5
	c2.2-1.4,10.4-5.4,11.5-6.5s3.2-6.8,1.4-8.6s-13.3-0.7-16.9-1.4C78.8,60.9,77.4,59.8,76.2,58.7z M78.5,93.8
	C78.5,93.8,78.5,93.8,78.5,93.8C78.5,93.8,78.5,93.8,78.5,93.8L78.5,93.8z M184.8,77.7c0,2.9-2.6,7-3.1,7.8c0.1-0.3,0.3-1.1,0.3-3.8
	c0-3.9,1.1-14-3.9-25.1c-5-11.1-12.6-16.5-12.6-16.5v2.5c-1.1-3.6-11.1-10.4-11.1-10.4v3.6c17.9,16.5,19.7,28,19.7,28
	c-3.2-10.4-12.6-18.3-20.5-25.8s-24.4-11.5-24.4-11.5c17.6,10,26.2,25.8,26.2,25.8c-9-8.6-16.2-7.9-16.2-7.9
	c5.4,3.9,7.9,8.3,12.9,16.2s4.7,26.6,4.7,26.6c-2.5-6.1-7.5-8.6-7.5-8.6s1.1,10.8,1.8,16.9s-2.5,17.6-2.5,17.6
	c0-4.3-2.5-5.4-2.5-5.4s0.7,2.5-2.9,14c-3.6,11.5-10.4,15.4-11.5,15.1s0-2.2,0-2.2s-1.8-1.4-4.3,2.5c-2.1,3.3-5.8,5.1-6.9,5.6
	c1.2-0.7,1.5-3.1,1.5-3.1s-2.5,1.4-14,3.2c-11.5,1.8-16.9-3.2-16.9-3.2c1.1-1.1,6.1,0,6.1,0c0-1.1-5.7-2.9-11.5-3.6
	c-4.7-0.6-6.9-2.7-8-4.5c-2.2-1.4-4-3-5.5-4.7c-1.7-1.9-3-4-4-6.1c-2-4.2-2.6-8.4-2.6-12.2c0-3.6,0.6-6.7,1.1-9s1.1-3.6,1.1-3.7l0,0
	l0.1,0c0.7-2.1,2-3.7,3.6-4.4c-0.5-0.3-1-0.7-1.5-0.9c-2.3-1.3-5-1.8-7.6-1.3c-2.6,0.4-5.1,1.7-7.3,3.4c-2.1,1.6-3.8,4-5,6.5
	c-1.1,2.6-1.7,5.4-1.7,8.3s0.6,5.7,1.6,8.4c1,2.7,2.5,5.2,4.3,7.5c1.8,2.3,3.9,4.4,6.2,6.2c-2.4-1.7-4.6-3.7-6.6-5.9
	s-3.6-4.7-4.9-7.5c-1.2-2.7-2-5.7-2.2-8.8c-0.2-3,0.3-6.1,1.3-9s2.8-5.6,5.2-7.7c1.2-1,2.5-1.9,3.9-2.6c1.4-0.7,2.9-1.3,4.5-1.6
	c1.6-0.3,3.3-0.4,4.9-0.2c1.6,0.2,3.2,0.7,4.7,1.4s2.8,1.6,4.1,2.6c0.6,0.5,1.2,1,1.8,1.6c0.3,0.3,0.6,0.6,0.8,0.9
	c0.2,0.3,0.4,0.5,0.7,0.8c1.3-3.3,0.4-8.9,0.2-10c-0.7-1-1.6-2.2-2.7-3.9c-0.8-1.3-1.7-2.9-2.6-4.9c-1.4-3.2-1.9-6.4-1.9-9.3
	c0-3.4,0.7-6.3,1.3-8.5c0.2-0.7,0.4-1.2,0.6-1.7c2-8.8,11.7-17.5,11.7-17.5c-13.6-1.8-23,10.8-23,10.8c0,0-0.1,0-0.1-0.1
	c-1,1.1-4.3,4.9-4.6,8c0,0,0.1-5.5,1.5-9.3c-5.2-1.7-11.3-0.8-14.5-0.1l0,0.1c-3.2,0.6-6.2,1.8-8.8,3.4s-4.9,3.4-6.8,5.3
	c-3.7,3.6-5.9,7-5.9,7.1l0,0l0,0l-0.1-0.1c-6.6,9.6-10.8,30-10.8,30c0.7-3.2,3.9-7.2,3.9-7.2c-3.6,5.4-2.9,30.2-2.9,30.2
	c0-3.9,2.2-8.6,2.2-8.6c0.7,8.3,4.3,34.8,27.6,54.9s43.1,21.9,43.1,21.9c-4.7-1.4-5.7-3.6-5.7-3.6c15.1,6.1,24.4,5,24.4,5
	c-2.5-1.4-2.9-2.5-2.9-2.5c16.2,0.7,37.7-5,42.7-8.6c5-3.6,9.3-10.8,9.3-10.8c12.9-6.1,21.9-18.7,24.4-25.1s0-13.3,0-13.3
	s0-0.4,6.1-14S184.8,77.7,184.8,77.7L184.8,77.7z M34.1,47.1c1.5-0.9,3.2-1.7,4.9-2.4C32,39,32.6,31.4,32.6,31.4
	c-6.9,6.7-8.6,17.9-9,24.8c0.1-0.1,0.2-0.2,0.3-0.3C26.3,53.1,29.7,49.8,34.1,47.1L34.1,47.1z"/>
</svg>
