<?xml version="1.0" encoding="utf-8"?>
<!-- Generator: Adobe Illustrator 21.0.0, SVG Export Plug-In . SVG Version: 6.00 Build 0)  -->
<svg version="1.1" id="Layer_1" xmlns="http://www.w3.org/2000/svg" xmlns:xlink="http://www.w3.org/1999/xlink" x="0px" y="0px"
	 viewBox="0 0 200 200" style="enable-background:new 0 0 200 200;" xml:space="preserve">
<path d="M187.2,127.2c-0.6-5.1-3.2-9-7.2-12.1c-4.6-3.6-9.9-5.1-15.6-5.3c-4.7-0.2-9.2,0.5-13.6,2.1c-1.3,0.5-2.5,1-3.7,1.5
	c-0.2-0.3-0.3-0.6-0.5-0.9c-1.3-2.6-2.9-5.2-3.2-8.2c-0.2-2.2-0.5-4.3,0-6.4c0.5-2,1.1-4.1,1.7-6.1c0.3-1,0.1-1.6-0.9-2.1
	c-0.3-0.2-0.7-0.3-1.1-0.4c-2.4-0.4-4.8-0.2-7.2,0.5c-0.8,0.2-1.4,0.7-1.6,1.6c-0.1,0.5-0.3,1-0.5,1.6c-0.6,2.2-1.1,4.4-2.1,6.5
	c-2.5,5.2-5.4,10.2-8.3,15.2c-0.3,0.5-0.6,1.1-1,1.7c-1-2.1-2.1-4.1-2.5-6.3c-0.4-2.6-0.7-5.1,0-7.6c0.5-1.9,1.1-3.8,1.7-5.6
	c0.3-0.9,0.1-1.3-0.7-1.8c-0.4-0.2-0.9-0.4-1.3-0.5c-2.5-0.4-5-0.2-7.5,0.6c-0.8,0.2-1.2,0.7-1.4,1.5c-0.7,2.3-1.3,4.7-2.2,6.9
	c-3.9,8.9-7.9,17.7-11.8,26.5c-0.8,1.8-1.8,3.6-2.7,5.4c-0.2,0.5-0.6,0.9-0.9,1.3c-0.2-0.3-0.3-0.5-0.3-0.7c0-1.1-0.1-2.3,0.1-3.4
	c0.7-3.3,1.4-6.6,2.2-9.9c0.7-2.7,1.4-5.4,2.1-8.1c0.2-0.9,0.3-1.7-0.4-2.5c-1.1-1.3-3.4-1.6-4.7-0.6c-0.1,0.1-0.3,0.2-0.6,0.3
	c0.1-0.4,0.1-0.7,0.1-1c0.3-2.1,0.3-4.1-0.2-6.2c-0.7-2.5-2.5-4-5.1-3.9c-1.2,0-2.5,0.2-3.6,0.7c-4.8,1.9-8.4,5.2-11.6,9.2
	c-0.3,0.4-0.7,0.7-1.1,0.9c-4,2.2-8.1,4.4-12.1,6.7c-1.5,0.8-3,1.7-4.5,2.5c-1.2-1.2-2.3-2.3-3.6-3.4c-3.8-3.1-7.7-6.1-11.5-9.2
	c-3.4-2.7-6.7-5.6-9.2-9.2c-1.9-2.7-3.1-5.6-3.2-8.9c-0.1-4.2,1-8.1,3.2-11.7c2.8-4.6,6.5-8.3,10.6-11.6c4.4-3.5,9.1-6.5,14-9.3
	c6.8-3.8,13.9-7.2,21.4-9.5c7.7-2.3,15.6-3.6,23.7-2.7c3.2,0.4,6.3,1.1,9.1,2.6c2.2,1.2,4,2.7,4.8,5.2c0.8,2.4,0.8,4.8,0.2,7.3
	c-1.2,4.9-3.8,9-7.2,12.6c-5.6,6-12.4,10-20,12.7c-4.4,1.5-9,2.5-13.6,2.9c-3.8,0.3-7.5,0-11.1-1.3c-2.4-0.9-4.5-2.2-6.1-4.2
	c-0.3-0.4-0.7-0.7-1.2-0.4c-0.5,0.3-0.6,0.8-0.5,1.4c0.3,0.9,0.6,1.8,1.1,2.6c1.2,2,2.9,3.4,4.9,4.6c3.7,2.3,7.8,3.1,12.1,3.3
	c6.5,0.3,12.8-0.7,19-2.4c8.9-2.5,16.6-6.9,22.9-13.8c5.2-5.8,8.9-12.3,9.7-20.1c0.4-3.8,0-7.6-1.8-11.1c-1.9-3.8-5-6.4-8.7-8.3
	c-5.4-2.8-11.2-3.9-17.2-4.3c-2,0-4,0-6,0c-7.3,0.4-14.3,1.9-21.1,4.4c-5.2,1.9-10.2,4-15.2,6.5c-10.7,5.4-20.7,11.8-28.9,20.6
	c-4.1,4.4-7.5,9.3-9.5,15c-0.6,1.7-0.9,3.5-1.4,5.2c0,0.1,0.1,0.3-0.2,0.4c0,0.8,0,1.6,0,2.5c0.4,0.6,0.4,1.3,0.6,1.9
	c1.1,4.1,3.2,7.6,5.9,10.8c3.8,4.6,8.5,8.2,13.3,11.7c4.2,3,8.4,5.9,12.6,8.9c0.7,0.5,1.4,1.1,2.2,1.7c-0.7,0.4-1.2,0.7-1.8,1
	c-5.5,2.8-10.8,5.9-15.7,9.7c-3,2.3-5.8,4.7-7.8,7.9c-3.2,5.1-4.4,10.6-2,16.4c0.7,1.7,1.8,3.2,3.3,4.3c0.5,0.4,1,0.7,1.6,0.8
	c1.5,0.3,3,0.6,4.5,0.8c1.4,0,2.8,0,4.2,0c4.7-0.4,8.9-2,12.8-4.7c6-4.2,10.1-9.7,11.8-16.9c1.3-5.2,1.3-10.4-0.2-15.6
	c-0.1-0.5-0.3-0.9-0.5-1.4c-0.2-0.5-0.4-0.9-0.6-1.5c3.2-1.8,6.4-3.7,9.6-5.5c0.1,0,0.1,0.1,0.1,0.1c-0.2,0.6-0.4,1.1-0.5,1.7
	c-1.1,4.2-1.9,8.4-1.6,12.7c0.3,4.6,1.6,8.9,4.3,12.8c2.2,3.1,7.4,3.2,9.7,0.1c0.8-1.1,1.6-2.3,2.2-3.5c1.6-3.2,3-6.5,4.5-9.8
	c0.1-0.1,0.1-0.3,0.3-0.6c-0.1,1.5-0.2,2.9-0.3,4.3c-0.1,2.1,0,4.2,0.8,6.3c0.6,1.7,1.7,3,3.7,3.2c1.3,0.2,2.4-0.5,3.4-1.3
	c1.6-1.2,2.8-2.7,3.8-4.5c2.7-4.9,5.4-9.7,7.8-14.7c2.6-5.4,4.9-11,7.3-16.5c0.1-0.3,0.3-0.6,0.4-1c0.6,2.2,1,4.4,1.7,6.5
	c0.8,2.4,1.9,4.8,3.1,7.1c0.5,1.1,0.5,1.8-0.3,2.7c-3.1,3.8-6.2,7.6-9.3,11.5c-0.7,0.8-1.4,1.7-1.9,2.6c-0.3,0.6-0.6,1.2-0.7,1.9
	c-0.2,1.3,0.6,2.5,1.9,2.8c1.2,0.3,2.5,0.4,3.8,0.3c4.3-0.3,8.2-1.8,11.7-4.4c4.5-3.3,5.9-7.9,4.8-13.3c-0.3-1.5-0.8-2.9-1.3-4.3
	c-0.2-0.6-0.2-1.1,0.2-1.7c3.6-5.1,6.7-10.6,9.5-16.1c0.1-0.2,0.2-0.4,0.4-0.7c0.9,4.8,2.3,9.5,4.8,13.7c-1.3,1.2-2.5,2.3-3.7,3.6
	c-2.5,2.7-4.7,5.6-5.8,9.2c-0.5,1.5-0.9,3.1-0.6,4.8c0.3,2.6,2.4,4.2,4.9,3.6c5.4-1.2,10-3.8,13.4-8.3c2.3-3,2.5-6.4,1.5-9.9
	c-0.3-1-0.6-1.9-0.9-3c1.3-0.4,2.6-0.9,4-1.2c6.9-1.6,13.8-1.3,20.5,1.2c3.9,1.5,7.1,3.9,8.9,7.8c2.3,4.7,1,9.2-3.4,12.2
	c-0.4,0.3-0.9,0.5-1.2,0.8c-0.2,0.2-0.3,0.6-0.3,0.9c0,0.2,0.5,0.4,0.7,0.4c1.5,0,2.6-0.8,3.8-1.6c2.9-2,4.7-4.6,5.2-8.1
	c0-0.1-0.1-0.2,0.2-0.3c0-0.8,0-1.5,0-2.3C187.1,127.4,187.3,127.3,187.2,127.2L187.2,127.2z M51.3,136.7
	c-0.5,6.2-3.3,11.3-7.9,15.3c-2.6,2.3-5.6,3.9-9,4.5c-1.3,0.2-2.5,0.3-3.8-0.3c-1.7-0.7-2.1-2.3-2.2-3.9c0-2.6,0.9-5,2.1-7.2
	c1.6-2.9,4-5.2,6.6-7.3c4-3.3,8.4-6.1,12.9-8.7c0.1,0,0.2-0.1,0.3-0.1C51.2,131.5,51.5,134.1,51.3,136.7L51.3,136.7z M86.4,109.6
	c-0.3,2-0.7,4-1.3,5.9c-2,6.7-4.6,13.1-7.4,19.5c-0.5,1.2-1.3,2.3-1.9,3.4c-0.1,0.2-0.3,0.3-0.4,0.5c-0.8,0.8-1.6,0.8-2-0.3
	c-0.5-1.2-0.8-2.5-1-3.8c-0.2-0.9-0.1-1.8-0.2-2.6c0.1-6.3,2-12,5.2-17.3c1.3-2.2,2.8-4.3,5-5.7c0.7-0.4,1.5-0.8,2.2-1
	C85.9,107.9,86.6,108.4,86.4,109.6L86.4,109.6z M110.4,140.1c2.9-3.3,5.7-6.7,8.6-10.1C119.3,133.8,113,141.3,110.4,140.1z
	 M137.9,133.4c-0.6,0.3-1.3,0.6-1.9,0.9c-0.6,0.3-0.8,0-0.8-0.5c0-0.3,0-0.7,0.1-1c1.2-4.1,3.3-7.6,6.5-10.4c0,0,0.1-0.1,0.2-0.1
	C143.5,126.5,141.8,131.1,137.9,133.4L137.9,133.4L137.9,133.4z"/>
</svg>
