<?xml version="1.0" encoding="utf-8"?>
<!-- Generator: Adobe Illustrator 21.0.0, SVG Export Plug-In . SVG Version: 6.00 Build 0)  -->
<svg version="1.1" id="Layer_1" xmlns="http://www.w3.org/2000/svg" xmlns:xlink="http://www.w3.org/1999/xlink" x="0px" y="0px"
	 viewBox="0 0 200 200" style="enable-background:new 0 0 200 200;" xml:space="preserve">
<path d="M72.9,53.6c-2.5,2.9-4.9,5.7-5.5,9.6l0.5,0.7c1.6-2,4.1-3.6,6.4-4.8c0,4.1,2.6,8,6.1,10l0.6,0c-0.7-4.3-0.2-9.5,1.4-13.4
	c2.7-2.2,6.2-3.1,8.4-5.5c-5.6-1.3-11-0.2-15.9,1.6L72.9,53.6C72.9,53.6,72.9,53.6,72.9,53.6z M96.2,66c-3.6,0.3-7,0.9-10.5,1.8
	c1.5,1.4,3.4,1.9,4.9,3.2c-4.5,1.7-9.2,2.8-13.1,6.2l0.8,0.5c7.3-1.5,15.8-1.4,23.4,0.2l0.4-0.3l-4.4-8l6.7-1.5
	c-3.6-3.4-7.7-6.6-12.4-8.1C92.8,62.1,94.8,64,96.2,66L96.2,66L96.2,66L96.2,66z M122.5,74c3.6,0.7,7.5,0.7,11,0.1
	c-5.6-2.9-12.8-2.3-17.3-7.4C117,69.4,118.8,73.7,122.5,74L122.5,74z M69,94.3c1.4,4.5-3.3,10,0.5,14.1c3.2,3.8,7.2,6.9,11,9.6
	l-0.3-1.4c-3.4-3.9-6.5-8.3-8-13c3.9,1.4,8.1,3.3,12.7,3.9c-5.1-7.6-14.4-14.9-10.9-25.3c0.2-1.7,2.5-3,1.9-4.6
	C70.3,81.8,68.1,87.8,69,94.3L69,94.3L69,94.3z M184.7,81.2c-7.2-10-33.3-11.6-45-24.7c2-6.5-2.2-11.9-6.5-16
	c-6.5-4.7-15.4-2.6-22.2-0.6c-7.8-1.6-15.1-4.4-22.7-6.7c-16.9-1.8-33.6,10.6-33.6,10.6c-12,7.9-30.9,24.4-39.9,34
	c2.2,0.3,4.6-1.4,7.1-1.8l17.3-4.8C32,77.6,16.9,88.5,12.5,97.1c5.4-1.9,16.7-8.5,22.4-9c-4.9,4.5-15.2,13.1-18.4,18.6
	c0.4,0.2,0.1,0.7,0.2,1c4.2-2.4,14.5-8.8,19.2-9.2c-4.8,5.2-13.6,15.2-15.6,21.9c4.2-2.8,14.7-8.6,19.3-10.4c-1,2.6-3.4,4.6-4.9,7.2
	c-2.1,3.7-7,7.8-7.2,12.1c3.7-3.5,8.2-6.6,12.8-9.2c-2,4.4-5.8,8-6.8,13.2c3-3,8.7-4.6,12.5-6l-0.5,0.5c-0.3,0.3-4.7,3.5-7.6,7
	c2.6-0.2,0.7-0.5,4,0.3l-5.5,2.2c4,5.2,8.3,9.8,13,13.5c-0.2-1.1-0.2-2.4-0.9-2.6l13.5-7.6c-4.6,0.8-17.1,4.6-17.8,4
	c2.7-3.1,17-7.1,19.7-12.5c0,0,0.4-0.2-1,0.3l-10.7,0.6c-2.1-7.6,6.8-11.6,2.3-17.6c-6.8-9-12.4-18.3-11.2-29.7
	c0.6,1.4,1.3,2.9,2.4,3.9c0.5-2.5,0.6-5.4,1.3-7.6c1,3.4,2,7.4,5.6,9.5l0.2-0.2c-2.9-10.8-1.1-23.7,9.5-30.3c-2.8,1-7,0.7-11.1,2.5
	c0.7-1,2-6.1,4.8-8.7c2.3-1.6,3.5-3.4,5.9-4.8c4.8-3.8,9.6-6.9,17.9-8.2c7.7-1.2,14.6,2.3,21.9,3.5c-0.3,1.1-1.7,1.6-2.2,2.5
	c-0.7,1.3-2.3,2.5-1.7,3.9l5.6-2.2c7.9-2,15.4-6,24-5.1l4.3,5.5c-9.2-7.3-18.8,2-28,4c-3.5,0.6-6.9,1.9-10.3,2.6
	c3.8,2.8,8.3,3.5,13.2,2.9c0.5,3.6,4.9,9.3,8.1,10.1c-0.5-3.3-4.2-7.9-1.8-11.9c3.1-1.7,7.4-5.5,10.9-2.7c-2.2,0.2-4.1,1.7-6,2.7
	c-1.4,1-1.8,4.2-1.5,4.9c1.4,4.3,9.2,8.4,22.5,8.2c-1.1-2-7.7-7.7-7.3-9.9c13.4,13.3,38,16.4,43.7,22.2c0.5,1.9-5.3,6.2-4.2,7.9
	c-0.7,2,2.5,5.7,5.7,9.6c-2.5-15.8,5.8-5.4,1.5,5.9l-6.1-1.3c-19.7-1.4-27.4-8.1-43-18.3c-5.8-3.8-12.3-9.3-16.3-12.5l-8.7-3.3
	c11.5,14,14.5,12.7,8.8,23.1l-3-5.3l-1.2-9.7c-3.4,11.6-5.2,23.8,10.1,30.9l8.7,1.2c-4.1-3.3-7.7-6.6-6.8-10.5
	c4.8,9.2,26.9,13.8,36.3,16.4c1.6,0.6,3.2,1.5,4.2,2.7c-2.5,2.2-3.9,1.9-7.2,3.1c-7.1-2.4-16.9-4.4-20.1-9
	c1.8,2.6-28.6,6.2-22.7,6.7c-8.6-0.4-17.2-6-23.3-12.9l-1.6-0.5c0.2,6.8,6.5,11.5,9.9,17.2l6.6,2.9c-3.2,2-7.2,3.9-9.1,7.5
	c-0.7,1.8-2.1,4-1.2,5.9c3-3.2,6.9-4.7,10.7-5.7l-2.9,4.4c0.6,4.9-3.4,13.5-6.1,18.6c-3.2,7.9-23.8,0.5-42.3-5
	c14.9,11.1,32.9,15.3,53.5,13.5l-2.2-4.8c4.9-9.6,2.3-24.9,14.9-31.5c8.6-4.6,9.6-7.1,19.5-5.2c5.3,1,17,5,22.7,3.8
	c5.1-2.9,7.6-4.3,12-7.7c5.5,1,7.3,0.4,9.3-2.6c1-2.8,3.5-10.2,5.7-15.1l0.2-2.6C185.3,94.1,185.8,82.9,184.7,81.2L184.7,81.2
	L184.7,81.2z M121.9,62.4c-0.1,0.5-0.1,0.9,0,1.4c-1.2-0.9-1.9-2.2-2-3.7c1.2-0.1,2.3,0,3.4,0.4C122.6,60.9,122.1,61.6,121.9,62.4
	C121.9,62.4,121.9,62.4,121.9,62.4z M125.9,65.5c0.5-0.4,1-1,1.2-1.8c0.1-0.4,0.1-0.7,0.1-1.1c1,0.8,1.8,1.8,2.6,2.9
	C128.5,65.8,127.1,65.7,125.9,65.5C125.9,65.5,125.9,65.5,125.9,65.5z M138.2,103.4c0.1-1.1,0-2.4,0.5-3.2c0.8,0.3,2.2,0.3,2.5,1
	C140.1,101.6,139.3,102.9,138.2,103.4L138.2,103.4L138.2,103.4z M145.1,106.9l0.2-3c0.9-0.2,1.6,0.4,2.1,0.8L145.1,106.9
	L145.1,106.9z M150.4,109.3c0.2-0.4-0.1-3.5,0.5-3.5l1.8,1.1C152.2,106.9,151,109.3,150.4,109.3L150.4,109.3z M155.4,111.8l0.6-1.4
	c-0.1-2.8,0-2.2,2-1.8C157.2,109.3,156.6,111.7,155.4,111.8L155.4,111.8z M161.8,113.7l0.1-4.3l2.1,0.5L161.8,113.7z M167.5,113
	c-0.2-3.3,0-3,2.6-2L167.5,113z M173.6,115.1c0.1-1.2,0.4-2.5,0-3.6c0.7,0.1,1.5-0.2,2.1,0.3C175.6,113.2,174.2,114,173.6,115.1
	L173.6,115.1z M150.4,109.3c0.5,0,1.8-2.4,2.3-2.4l-1.8-1.1C150.3,105.8,150.6,108.9,150.4,109.3L150.4,109.3z M97,154.2
	c0.8,1.5,0.8,3.4,1.7,4.9c1.9-4.2,1.7-9.1-0.8-12.9c-4.3-1.9-8.5-3.9-12.3-6.9C87.1,144.6,92.2,150.4,97,154.2L97,154.2L97,154.2
	L97,154.2z M95.4,164.8l4.2-3.4c-4.1-2.7-11-7.4-14.8-11C87.8,156.5,87.9,163.3,95.4,164.8L95.4,164.8z"/>
</svg>
