<?xml version="1.0" encoding="utf-8"?>
<!-- Generator: Adobe Illustrator 21.0.0, SVG Export Plug-In . SVG Version: 6.00 Build 0)  -->
<svg version="1.1" id="Layer_1" xmlns="http://www.w3.org/2000/svg" xmlns:xlink="http://www.w3.org/1999/xlink" x="0px" y="0px"
	 viewBox="0 0 200 200" style="enable-background:new 0 0 200 200;" xml:space="preserve">
<path d="M100,12.5c-48.3,0-87.5,39.2-87.5,87.5s39.2,87.5,87.5,87.5s87.5-39.2,87.5-87.5S148.3,12.5,100,12.5z M119.6,42.6
	c3.2-5.6,10.4-7.5,16-4.3s7.5,10.4,4.3,16c-3.2,5.6-10.4,7.5-16,4.3C118.3,55.3,116.4,48.2,119.6,42.6L119.6,42.6z M100,49.2
	c4.7,0,9.2,0.7,13.6,1.8c0.8,4.7,3.6,9,8,11.6c4.4,2.6,9.6,2.8,14,1.1c8.6,8.5,14.3,20,15.1,32.9L134,97
	c-1.5-17.4-16.2-31.1-34-31.1c-5.1,0-10,1.1-14.4,3.2l-8.1-14.5C84.3,51.1,91.9,49.2,100,49.2L100,49.2L100,49.2z M40.5,111.7
	c-6.5,0-11.7-5.2-11.7-11.7c0-6.5,5.2-11.7,11.7-11.7c6.5,0,11.7,5.2,11.7,11.7C52.2,106.5,46.9,111.7,40.5,111.7z M50.9,112.7
	c3.7-3,6-7.6,6-12.7s-2.4-9.7-6-12.7C54,75,61.6,64.6,71.8,57.8l8.5,14.3c-8.8,6.2-14.5,16.4-14.5,27.9s5.7,21.7,14.5,27.9
	l-8.5,14.3C61.6,135.4,54,125,50.9,112.7z M135.6,161.6c-5.6,3.2-12.7,1.3-16-4.3s-1.3-12.7,4.3-16c5.6-3.2,12.7-1.3,15.9,4.3
	C143.1,151.3,141.2,158.4,135.6,161.6L135.6,161.6z M135.6,136.2c-4.4-1.7-9.6-1.4-14,1.1c-4.4,2.6-7.2,6.9-8,11.6
	c-4.3,1.2-8.9,1.8-13.6,1.8c-8.1,0-15.7-1.9-22.5-5.3l8.1-14.5c4.4,2,9.2,3.2,14.4,3.2c17.8,0,32.5-13.7,34-31.1l16.7,0.2
	C149.8,116.1,144.2,127.7,135.6,136.2z"/>
</svg>
